<?xml version="1.0" encoding="UTF-8"?><svg id="uuid-f9a305f7-c41c-4146-8b7e-26c1dadf2300" xmlns="http://www.w3.org/2000/svg" viewBox="0 0 448.82 166.09"><defs><style>.uuid-07cd9b84-968a-4e42-815a-1b08c2b63ff2{fill:#fff;}</style></defs><polygon class="uuid-07cd9b84-968a-4e42-815a-1b08c2b63ff2" points="66 56.17 66 109.91 50.23 109.91 50.23 71.49 39.86 109.91 29.08 109.91 18.58 71.49 18.58 109.91 2.78 109.91 2.78 56.17 26.38 56.17 34.41 84.72 42.35 56.17 66 56.17"/><polygon class="uuid-07cd9b84-968a-4e42-815a-1b08c2b63ff2" points="98.96 69.05 98.96 109.91 82.87 109.91 82.87 69.05 70.88 69.05 70.88 56.17 110.96 56.17 110.96 69.05 98.96 69.05"/><path class="uuid-07cd9b84-968a-4e42-815a-1b08c2b63ff2" d="M131.66,77.86h7.25c2.13,0,3.85-.43,5.15-1.3,1.3-.87,1.94-2.14,1.94-3.82,0-3.44-2.18-5.16-6.52-5.16h-7.82v10.28ZM163.92,109.91h-18.83l-8.08-20.55h-5.35v20.55h-15.82v-53.74h27.74c6.38,0,11.33,1.45,14.85,4.35,3.53,2.9,5.29,6.73,5.29,11.48,0,3.1-.65,5.83-1.95,8.21-1.3,2.38-3.92,4.47-7.86,6.28l10.01,23.43Z"/><polygon class="uuid-07cd9b84-968a-4e42-815a-1b08c2b63ff2" points="163.36 123.22 163.36 163.36 2.72 163.36 2.72 123.22 0 123.22 0 166.09 166.08 166.09 166.08 123.22 163.36 123.22"/><polygon class="uuid-07cd9b84-968a-4e42-815a-1b08c2b63ff2" points="0 0 0 42.86 2.72 42.86 2.72 2.72 163.36 2.72 163.36 42.86 166.08 42.86 166.08 0 0 0"/><polygon class="uuid-07cd9b84-968a-4e42-815a-1b08c2b63ff2" points="175.15 109.92 175.15 56.19 192.51 56.19 192.51 58.9 178.17 58.9 178.17 81.7 190.55 81.7 190.55 84.41 178.17 84.41 178.17 107.21 192.51 107.21 192.51 109.92 175.15 109.92"/><path class="uuid-07cd9b84-968a-4e42-815a-1b08c2b63ff2" d="M215.52,60.11c-1.13-1.21-2.87-1.81-5.06-1.81s-3.93.6-5.06,1.81c-2.49,2.72-2.87,4.98-2.87,22.94s.38,20.23,2.87,22.94c1.13,1.21,2.87,1.81,5.06,1.81,1.81,0,3.32-.38,4.45-1.21l-4.75-4,1.66-1.96,4.76,4c1.58-2.57,1.81-6.64,1.81-21.59,0-17.96-.38-20.23-2.87-22.94M221.26,111.89l-4.15-3.47c-1.74,1.36-4.08,2.11-6.64,2.11-2.95,0-5.51-.91-7.17-2.64-3.17-3.24-3.77-6.26-3.77-24.83s.6-21.59,3.77-24.83c1.66-1.74,4.23-2.64,7.17-2.64s5.51.91,7.17,2.64c3.17,3.25,3.77,6.26,3.77,24.83,0,15.92-.45,20.38-2.57,23.4l4.07,3.47-1.66,1.96Z"/><path class="uuid-07cd9b84-968a-4e42-815a-1b08c2b63ff2" d="M247.98,107.74c-1.89,1.89-4.53,2.79-7.17,2.79s-5.28-.91-7.17-2.79c-1.89-1.81-3.02-4.53-3.02-8.23v-43.32h3.02v43.62c0,4.9,3.17,8,7.17,8s7.17-3.09,7.17-8v-43.62h3.02v43.32c0,3.7-1.13,6.42-3.02,8.23"/><rect class="uuid-07cd9b84-968a-4e42-815a-1b08c2b63ff2" x="261.26" y="56.19" width="3.02" height="53.74"/><path class="uuid-07cd9b84-968a-4e42-815a-1b08c2b63ff2" d="M284.88,58.9h-6.72v23.55h6.72c5.66,0,7.62-3.93,7.62-11.77s-1.96-11.77-7.62-11.77M284.65,85.17h-6.49v24.76h-3.02v-53.74h9.51c5.28,0,10.87,1.43,10.87,14.49,0,11.47-4.15,14.49-10.87,14.49"/><polygon class="uuid-07cd9b84-968a-4e42-815a-1b08c2b63ff2" points="331.47 109.92 331.47 63.21 320.75 93.85 318.03 93.85 307.47 64.26 307.47 109.92 304.45 109.92 304.45 56.19 307.77 56.19 319.47 89.02 331.16 56.19 334.49 56.19 334.49 109.92 331.47 109.92"/><polygon class="uuid-07cd9b84-968a-4e42-815a-1b08c2b63ff2" points="345.35 109.92 345.35 56.19 362.71 56.19 362.71 58.9 348.37 58.9 348.37 81.7 360.75 81.7 360.75 84.41 348.37 84.41 348.37 107.21 362.71 107.21 362.71 109.92 345.35 109.92"/><polygon class="uuid-07cd9b84-968a-4e42-815a-1b08c2b63ff2" points="390.79 109.92 374.94 64.49 374.94 109.92 371.92 109.92 371.92 56.19 375.24 56.19 391.16 101.62 391.09 56.19 394.11 56.19 394.11 109.92 390.79 109.92"/><polygon class="uuid-07cd9b84-968a-4e42-815a-1b08c2b63ff2" points="413.2 58.9 413.2 109.92 410.18 109.92 410.18 58.9 401.2 58.9 401.2 56.19 422.18 56.19 422.18 58.9 413.2 58.9"/><path class="uuid-07cd9b84-968a-4e42-815a-1b08c2b63ff2" d="M445.5,107.74c-1.74,1.74-4.15,2.64-7.62,2.64-3.25,0-5.81-.75-7.7-2.64-2.34-2.41-3.1-4.91-3.1-10.87h3.02c0,4.6.53,6.94,2.34,8.75,1.21,1.21,3.02,1.96,5.43,1.96,2.64,0,4.38-.76,5.51-1.96,2.04-2.04,2.41-4.68,2.41-9.36,0-7.09-1.13-9.81-5.89-11.77l-5.51-2.26c-5.51-2.26-6.94-5.36-6.94-13.36,0-4.53,1.13-8.08,3.4-10.34,1.81-1.81,4.23-2.79,7.4-2.79s5.74.98,7.55,2.79c2.57,2.64,3.02,5.51,3.02,9.96h-3.02c0-3.7-.53-5.96-2.26-7.92-1.21-1.36-2.94-2.11-5.36-2.11-2.27,0-3.85.68-5.06,1.81-1.89,1.81-2.64,4.91-2.64,8.53,0,6.79.9,8.91,6.26,11.1l5.51,2.26c5.59,2.26,6.57,6.72,6.57,14.04,0,5.74-.98,9.13-3.32,11.55"/></svg>